<svg width="100" height="100" viewBox="0 0 100 100" xmlns="http://www.w3.org/2000/svg"><title>Slice</title><defs><linearGradient x1="0%" y1="-794.09%" x2="86.58%" y2="1518.96%" id="a"><stop stop-color="#2178A3" offset="0%"/><stop stop-color="#35B3B9" offset="100%"/></linearGradient></defs><path d="M72.06 3.73H2.1C1.36 3.8.75 3.47.38 2.86 0 2.26 0 1.48.38.9.75.27 1.48-.07 2.23 0h69.95c1 .13 1.73 1 1.73 1.96 0 .97-.7 1.82-1.7 1.94l-.1-.17zM61.4 17.17H11.3c-.74.1-1.48-.24-1.85-.85-.36-.6-.36-1.37 0-1.98.37-.6 1-.97 1.73-.97h50.04c.73-.13 1.4.24 1.77.85.32.6.32 1.34 0 1.94-.4.6-1.1.98-1.8.85l.2.2zM51.2 30.8H21.5c-.98-.1-1.72-.9-1.72-1.87 0-.97.74-1.82 1.72-1.94h29.64c.98.1 1.72.8 1.72 1.8s-.74 1.7-1.72 1.8l.06.15zM42 43.6H30.7c-.98-.1-1.72-.9-1.72-1.87 0-.85.74-1.7 1.72-1.83H42c1 .13 1.73.98 1.73 1.95S43 43.67 42 43.8v-.2z" transform="translate(13 31)" fill="url(#a)" fill-rule="evenodd"/></svg>
