<svg width="74" height="74" viewBox="0 0 74 74" xmlns="http://www.w3.org/2000/svg"><defs><linearGradient x1="0%" y1="-794.09%" x2="86.58%" y2="1518.96%" id="a"><stop stop-color="#2178A3" offset="0%"/><stop stop-color="#35B3B9" offset="100%"/></linearGradient></defs><path d="M72.06 20.73H2.1a1.75 1.75 0 0 1-1.72-.87 1.83 1.83 0 0 1 0-1.96c.37-.63 1.1-.97 1.85-.9h69.95a2 2 0 0 1 1.73 1.96c0 .97-.7 1.82-1.7 1.94l-.1-.17h-.05zM61.4 34.17H11.3c-.74.1-1.48-.24-1.85-.85a1.95 1.95 0 0 1 0-1.98 2 2 0 0 1 1.73-.97h50.04c.73-.13 1.4.24 1.77.85.32.6.32 1.34 0 1.94-.4.6-1.1.98-1.8.85l.2.2.01-.04zM51.2 47.8H21.5c-.98-.1-1.72-.9-1.72-1.87 0-.97.74-1.82 1.72-1.94h29.64c.98.1 1.72.8 1.72 1.8s-.74 1.7-1.72 1.8l.06.15v.06zM42 60.6H30.7c-.98-.1-1.72-.9-1.72-1.87 0-.85.74-1.7 1.72-1.83H42c1 .13 1.73.98 1.73 1.95S43 60.67 42 60.8v-.2z" fill="url(#a)" fill-rule="evenodd"/></svg>
